STARTFONT 2.1
COMMENT MicroKnight font
COMMENT Eltech Digital Chips issue 8 (1995)
COMMENT   Coding/Graphics done by: Preacher!
COMMENT   Music/Packing done by: Maze!
COMMENT https://files.scene.org/view/music/disks/elt-dc08.lha
COMMENT sha1: 91365d100ae9e002592ee9152aff1a3570f2e3a4
FONT --MicroKnight-Regular-R-Normal--8-80-72-72-C-80-ISO8859-1
SIZE 8 72 72
FONTBOUNDINGBOX 8 8 0 -1
METRICSSET 2
STARTPROPERTIES 18
PIXEL_SIZE 8
RESOLUTION_X 72
RESOLUTION_Y 72
POINT_SIZE 80
FACE_NAME "MicroKnight Regular 8x8"
FONT_VERSION "1"
FOUNDRY ""
FAMILY_NAME "MicroKnight"
WEIGHT_NAME "Regular"
RELATIVE_WEIGHT 50
SLANT "R"
SPACING "C"
SETWIDTH_NAME "Normal"
RELATIVE_SETWIDTH 50
ADD_STYLE_NAME ""
AVERAGE_WIDTH 80
CHARSET_REGISTRY "ISO8859"
CHARSET_ENCODING "1"
ENDPROPERTIES
CHARS 225
STARTCHAR space
ENCODING 32
SWIDTH 1000 0
DWIDTH 8 0
BBX 8 8 0 -1
VVECTOR 4 7
SWIDTH1 0 -1000
DWIDTH1 0 -8
BITMAP 
00
00
00
00
00
00
00
00
ENDCHAR
STARTCHAR exclam
ENCODING 33
SWIDTH 1000 0
DWIDTH 8 0
BBX 8 8 0 -1
VVECTOR 4 7
SWIDTH1 0 -1000
DWIDTH1 0 -8
BITMAP 
18
18
18
18
18
00
18
00
ENDCHAR
STARTCHAR quotedbl
ENCODING 34
SWIDTH 1000 0
DWIDTH 8 0
BBX 8 8 0 -1
VVECTOR 4 7
SWIDTH1 0 -1000
DWIDTH1 0 -8
BITMAP 
6C
6C
24
00
00
00
00
00
ENDCHAR
STARTCHAR numbersign
ENCODING 35
SWIDTH 1000 0
DWIDTH 8 0
BBX 8 8 0 -1
VVECTOR 4 7
SWIDTH1 0 -1000
DWIDTH1 0 -8
BITMAP 
6C
6C
FE
6C
FE
6C
6C
00
ENDCHAR
STARTCHAR dollar
ENCODING 36
SWIDTH 1000 0
DWIDTH 8 0
BBX 8 8 0 -1
VVECTOR 4 7
SWIDTH1 0 -1000
DWIDTH1 0 -8
BITMAP 
10
7C
D0
7C
16
16
7C
10
ENDCHAR
STARTCHAR percent
ENCODING 37
SWIDTH 1000 0
DWIDTH 8 0
BBX 8 8 0 -1
VVECTOR 4 7
SWIDTH1 0 -1000
DWIDTH1 0 -8
BITMAP 
60
96
7C
18
30
6C
D2
0C
ENDCHAR
STARTCHAR ampersand
ENCODING 38
SWIDTH 1000 0
DWIDTH 8 0
BBX 8 8 0 -1
VVECTOR 4 7
SWIDTH1 0 -1000
DWIDTH1 0 -8
BITMAP 
70
D8
70
F6
DC
D8
7C
06
ENDCHAR
STARTCHAR quotesingle
ENCODING 39
SWIDTH 1000 0
DWIDTH 8 0
BBX 8 8 0 -1
VVECTOR 4 7
SWIDTH1 0 -1000
DWIDTH1 0 -8
BITMAP 
30
30
10
20
00
00
00
00
ENDCHAR
STARTCHAR parenleft
ENCODING 40
SWIDTH 1000 0
DWIDTH 8 0
BBX 8 8 0 -1
VVECTOR 4 7
SWIDTH1 0 -1000
DWIDTH1 0 -8
BITMAP 
18
30
60
60
60
30
18
00
ENDCHAR
STARTCHAR parenright
ENCODING 41
SWIDTH 1000 0
DWIDTH 8 0
BBX 8 8 0 -1
VVECTOR 4 7
SWIDTH1 0 -1000
DWIDTH1 0 -8
BITMAP 
30
18
0C
0C
0C
18
30
00
ENDCHAR
STARTCHAR asterisk
ENCODING 42
SWIDTH 1000 0
DWIDTH 8 0
BBX 8 8 0 -1
VVECTOR 4 7
SWIDTH1 0 -1000
DWIDTH1 0 -8
BITMAP 
00
6C
38
FE
38
6C
00
00
ENDCHAR
STARTCHAR plus
ENCODING 43
SWIDTH 1000 0
DWIDTH 8 0
BBX 8 8 0 -1
VVECTOR 4 7
SWIDTH1 0 -1000
DWIDTH1 0 -8
BITMAP 
00
18
18
7E
18
18
00
00
ENDCHAR
STARTCHAR comma
ENCODING 44
SWIDTH 1000 0
DWIDTH 8 0
BBX 8 8 0 -1
VVECTOR 4 7
SWIDTH1 0 -1000
DWIDTH1 0 -8
BITMAP 
00
00
00
00
30
30
10
20
ENDCHAR
STARTCHAR hyphen
ENCODING 45
SWIDTH 1000 0
DWIDTH 8 0
BBX 8 8 0 -1
VVECTOR 4 7
SWIDTH1 0 -1000
DWIDTH1 0 -8
BITMAP 
00
00
00
7C
00
00
00
00
ENDCHAR
STARTCHAR period
ENCODING 46
SWIDTH 1000 0
DWIDTH 8 0
BBX 8 8 0 -1
VVECTOR 4 7
SWIDTH1 0 -1000
DWIDTH1 0 -8
BITMAP 
00
00
00
00
00
30
30
00
ENDCHAR
STARTCHAR slash
ENCODING 47
SWIDTH 1000 0
DWIDTH 8 0
BBX 8 8 0 -1
VVECTOR 4 7
SWIDTH1 0 -1000
DWIDTH1 0 -8
BITMAP 
00
06
0C
18
30
60
C0
00
ENDCHAR
STARTCHAR zero
ENCODING 48
SWIDTH 1000 0
DWIDTH 8 0
BBX 8 8 0 -1
VVECTOR 4 7
SWIDTH1 0 -1000
DWIDTH1 0 -8
BITMAP 
00
78
CC
DE
F6
E6
7C
00
ENDCHAR
STARTCHAR one
ENCODING 49
SWIDTH 1000 0
DWIDTH 8 0
BBX 8 8 0 -1
VVECTOR 4 7
SWIDTH1 0 -1000
DWIDTH1 0 -8
BITMAP 
18
18
38
18
18
18
7E
00
ENDCHAR
STARTCHAR two
ENCODING 50
SWIDTH 1000 0
DWIDTH 8 0
BBX 8 8 0 -1
VVECTOR 4 7
SWIDTH1 0 -1000
DWIDTH1 0 -8
BITMAP 
7C
06
3C
60
C0
C0
FE
00
ENDCHAR
STARTCHAR three
ENCODING 51
SWIDTH 1000 0
DWIDTH 8 0
BBX 8 8 0 -1
VVECTOR 4 7
SWIDTH1 0 -1000
DWIDTH1 0 -8
BITMAP 
3C
06
1C
06
46
C6
7C
00
ENDCHAR
STARTCHAR four
ENCODING 52
SWIDTH 1000 0
DWIDTH 8 0
BBX 8 8 0 -1
VVECTOR 4 7
SWIDTH1 0 -1000
DWIDTH1 0 -8
BITMAP 
18
18
30
6C
CC
FE
0C
00
ENDCHAR
STARTCHAR five
ENCODING 53
SWIDTH 1000 0
DWIDTH 8 0
BBX 8 8 0 -1
VVECTOR 4 7
SWIDTH1 0 -1000
DWIDTH1 0 -8
BITMAP 
F8
C0
FC
06
46
CC
78
00
ENDCHAR
STARTCHAR six
ENCODING 54
SWIDTH 1000 0
DWIDTH 8 0
BBX 8 8 0 -1
VVECTOR 4 7
SWIDTH1 0 -1000
DWIDTH1 0 -8
BITMAP 
70
C0
FC
C6
C6
CC
78
00
ENDCHAR
STARTCHAR seven
ENCODING 55
SWIDTH 1000 0
DWIDTH 8 0
BBX 8 8 0 -1
VVECTOR 4 7
SWIDTH1 0 -1000
DWIDTH1 0 -8
BITMAP 
FE
06
0C
18
18
18
18
00
ENDCHAR
STARTCHAR eight
ENCODING 56
SWIDTH 1000 0
DWIDTH 8 0
BBX 8 8 0 -1
VVECTOR 4 7
SWIDTH1 0 -1000
DWIDTH1 0 -8
BITMAP 
78
CC
7C
C6
C6
CC
78
00
ENDCHAR
STARTCHAR nine
ENCODING 57
SWIDTH 1000 0
DWIDTH 8 0
BBX 8 8 0 -1
VVECTOR 4 7
SWIDTH1 0 -1000
DWIDTH1 0 -8
BITMAP 
78
CC
C6
C6
7E
06
1C
00
ENDCHAR
STARTCHAR colon
ENCODING 58
SWIDTH 1000 0
DWIDTH 8 0
BBX 8 8 0 -1
VVECTOR 4 7
SWIDTH1 0 -1000
DWIDTH1 0 -8
BITMAP 
00
00
30
30
00
30
30
00
ENDCHAR
STARTCHAR semicolon
ENCODING 59
SWIDTH 1000 0
DWIDTH 8 0
BBX 8 8 0 -1
VVECTOR 4 7
SWIDTH1 0 -1000
DWIDTH1 0 -8
BITMAP 
00
00
30
30
00
30
10
20
ENDCHAR
STARTCHAR less
ENCODING 60
SWIDTH 1000 0
DWIDTH 8 0
BBX 8 8 0 -1
VVECTOR 4 7
SWIDTH1 0 -1000
DWIDTH1 0 -8
BITMAP 
00
18
30
60
30
18
00
00
ENDCHAR
STARTCHAR equal
ENCODING 61
SWIDTH 1000 0
DWIDTH 8 0
BBX 8 8 0 -1
VVECTOR 4 7
SWIDTH1 0 -1000
DWIDTH1 0 -8
BITMAP 
00
00
7C
00
00
7C
00
00
ENDCHAR
STARTCHAR greater
ENCODING 62
SWIDTH 1000 0
DWIDTH 8 0
BBX 8 8 0 -1
VVECTOR 4 7
SWIDTH1 0 -1000
DWIDTH1 0 -8
BITMAP 
00
30
18
0C
18
30
00
00
ENDCHAR
STARTCHAR question
ENCODING 63
SWIDTH 1000 0
DWIDTH 8 0
BBX 8 8 0 -1
VVECTOR 4 7
SWIDTH1 0 -1000
DWIDTH1 0 -8
BITMAP 
7C
C6
06
3C
30
00
30
00
ENDCHAR
STARTCHAR at
ENCODING 64
SWIDTH 1000 0
DWIDTH 8 0
BBX 8 8 0 -1
VVECTOR 4 7
SWIDTH1 0 -1000
DWIDTH1 0 -8
BITMAP 
38
6C
DE
F6
DE
C0
66
3C
ENDCHAR
STARTCHAR A
ENCODING 65
SWIDTH 1000 0
DWIDTH 8 0
BBX 8 8 0 -1
VVECTOR 4 7
SWIDTH1 0 -1000
DWIDTH1 0 -8
BITMAP 
78
CC
C6
FE
C6
C6
C6
00
ENDCHAR
STARTCHAR B
ENCODING 66
SWIDTH 1000 0
DWIDTH 8 0
BBX 8 8 0 -1
VVECTOR 4 7
SWIDTH1 0 -1000
DWIDTH1 0 -8
BITMAP 
F8
CC
FC
C6
C6
CC
F8
00
ENDCHAR
STARTCHAR C
ENCODING 67
SWIDTH 1000 0
DWIDTH 8 0
BBX 8 8 0 -1
VVECTOR 4 7
SWIDTH1 0 -1000
DWIDTH1 0 -8
BITMAP 
78
CC
C0
C0
C0
C6
7C
00
ENDCHAR
STARTCHAR D
ENCODING 68
SWIDTH 1000 0
DWIDTH 8 0
BBX 8 8 0 -1
VVECTOR 4 7
SWIDTH1 0 -1000
DWIDTH1 0 -8
BITMAP 
F8
CC
C6
C6
C6
C6
FC
00
ENDCHAR
STARTCHAR E
ENCODING 69
SWIDTH 1000 0
DWIDTH 8 0
BBX 8 8 0 -1
VVECTOR 4 7
SWIDTH1 0 -1000
DWIDTH1 0 -8
BITMAP 
FE
C0
FC
C0
C0
C0
FE
00
ENDCHAR
STARTCHAR F
ENCODING 70
SWIDTH 1000 0
DWIDTH 8 0
BBX 8 8 0 -1
VVECTOR 4 7
SWIDTH1 0 -1000
DWIDTH1 0 -8
BITMAP 
FE
C0
FC
C0
C0
C0
C0
00
ENDCHAR
STARTCHAR G
ENCODING 71
SWIDTH 1000 0
DWIDTH 8 0
BBX 8 8 0 -1
VVECTOR 4 7
SWIDTH1 0 -1000
DWIDTH1 0 -8
BITMAP 
38
60
C0
CE
C6
C6
7E
06
ENDCHAR
STARTCHAR H
ENCODING 72
SWIDTH 1000 0
DWIDTH 8 0
BBX 8 8 0 -1
VVECTOR 4 7
SWIDTH1 0 -1000
DWIDTH1 0 -8
BITMAP 
C6
C6
C6
FE
C6
C6
C6
00
ENDCHAR
STARTCHAR I
ENCODING 73
SWIDTH 1000 0
DWIDTH 8 0
BBX 8 8 0 -1
VVECTOR 4 7
SWIDTH1 0 -1000
DWIDTH1 0 -8
BITMAP 
7E
18
18
18
18
18
7E
00
ENDCHAR
STARTCHAR J
ENCODING 74
SWIDTH 1000 0
DWIDTH 8 0
BBX 8 8 0 -1
VVECTOR 4 7
SWIDTH1 0 -1000
DWIDTH1 0 -8
BITMAP 
0E
06
06
06
C6
C6
7C
00
ENDCHAR
STARTCHAR K
ENCODING 75
SWIDTH 1000 0
DWIDTH 8 0
BBX 8 8 0 -1
VVECTOR 4 7
SWIDTH1 0 -1000
DWIDTH1 0 -8
BITMAP 
C6
CC
D8
F0
D8
CC
C6
00
ENDCHAR
STARTCHAR L
ENCODING 76
SWIDTH 1000 0
DWIDTH 8 0
BBX 8 8 0 -1
VVECTOR 4 7
SWIDTH1 0 -1000
DWIDTH1 0 -8
BITMAP 
C0
C0
C0
C0
C0
C0
FE
00
ENDCHAR
STARTCHAR M
ENCODING 77
SWIDTH 1000 0
DWIDTH 8 0
BBX 8 8 0 -1
VVECTOR 4 7
SWIDTH1 0 -1000
DWIDTH1 0 -8
BITMAP 
C6
EE
FE
D6
C6
C6
C6
00
ENDCHAR
STARTCHAR N
ENCODING 78
SWIDTH 1000 0
DWIDTH 8 0
BBX 8 8 0 -1
VVECTOR 4 7
SWIDTH1 0 -1000
DWIDTH1 0 -8
BITMAP 
C6
E6
F6
DE
CE
C6
C6
00
ENDCHAR
STARTCHAR O
ENCODING 79
SWIDTH 1000 0
DWIDTH 8 0
BBX 8 8 0 -1
VVECTOR 4 7
SWIDTH1 0 -1000
DWIDTH1 0 -8
BITMAP 
78
CC
C6
C6
C6
C6
7C
00
ENDCHAR
STARTCHAR P
ENCODING 80
SWIDTH 1000 0
DWIDTH 8 0
BBX 8 8 0 -1
VVECTOR 4 7
SWIDTH1 0 -1000
DWIDTH1 0 -8
BITMAP 
F8
CC
C6
C6
FC
C0
C0
00
ENDCHAR
STARTCHAR Q
ENCODING 81
SWIDTH 1000 0
DWIDTH 8 0
BBX 8 8 0 -1
VVECTOR 4 7
SWIDTH1 0 -1000
DWIDTH1 0 -8
BITMAP 
78
CC
C6
C6
C6
D6
7C
0C
ENDCHAR
STARTCHAR R
ENCODING 82
SWIDTH 1000 0
DWIDTH 8 0
BBX 8 8 0 -1
VVECTOR 4 7
SWIDTH1 0 -1000
DWIDTH1 0 -8
BITMAP 
F8
CC
C6
C6
FC
D8
CC
06
ENDCHAR
STARTCHAR S
ENCODING 83
SWIDTH 1000 0
DWIDTH 8 0
BBX 8 8 0 -1
VVECTOR 4 7
SWIDTH1 0 -1000
DWIDTH1 0 -8
BITMAP 
78
C0
7C
06
46
C6
7C
00
ENDCHAR
STARTCHAR T
ENCODING 84
SWIDTH 1000 0
DWIDTH 8 0
BBX 8 8 0 -1
VVECTOR 4 7
SWIDTH1 0 -1000
DWIDTH1 0 -8
BITMAP 
7E
18
18
18
18
18
18
00
ENDCHAR
STARTCHAR U
ENCODING 85
SWIDTH 1000 0
DWIDTH 8 0
BBX 8 8 0 -1
VVECTOR 4 7
SWIDTH1 0 -1000
DWIDTH1 0 -8
BITMAP 
C6
C6
C6
C6
C6
C6
7C
00
ENDCHAR
STARTCHAR V
ENCODING 86
SWIDTH 1000 0
DWIDTH 8 0
BBX 8 8 0 -1
VVECTOR 4 7
SWIDTH1 0 -1000
DWIDTH1 0 -8
BITMAP 
C6
C6
C6
6C
6C
38
38
00
ENDCHAR
STARTCHAR W
ENCODING 87
SWIDTH 1000 0
DWIDTH 8 0
BBX 8 8 0 -1
VVECTOR 4 7
SWIDTH1 0 -1000
DWIDTH1 0 -8
BITMAP 
C6
C6
C6
D6
FE
EE
C6
00
ENDCHAR
STARTCHAR X
ENCODING 88
SWIDTH 1000 0
DWIDTH 8 0
BBX 8 8 0 -1
VVECTOR 4 7
SWIDTH1 0 -1000
DWIDTH1 0 -8
BITMAP 
C6
6C
38
38
6C
C6
C6
00
ENDCHAR
STARTCHAR Y
ENCODING 89
SWIDTH 1000 0
DWIDTH 8 0
BBX 8 8 0 -1
VVECTOR 4 7
SWIDTH1 0 -1000
DWIDTH1 0 -8
BITMAP 
C6
C6
C6
7C
0C
0C
0C
00
ENDCHAR
STARTCHAR Z
ENCODING 90
SWIDTH 1000 0
DWIDTH 8 0
BBX 8 8 0 -1
VVECTOR 4 7
SWIDTH1 0 -1000
DWIDTH1 0 -8
BITMAP 
FE
0C
18
30
60
C0
FE
00
ENDCHAR
STARTCHAR bracketleft
ENCODING 91
SWIDTH 1000 0
DWIDTH 8 0
BBX 8 8 0 -1
VVECTOR 4 7
SWIDTH1 0 -1000
DWIDTH1 0 -8
BITMAP 
38
30
30
30
30
30
38
00
ENDCHAR
STARTCHAR backslash
ENCODING 92
SWIDTH 1000 0
DWIDTH 8 0
BBX 8 8 0 -1
VVECTOR 4 7
SWIDTH1 0 -1000
DWIDTH1 0 -8
BITMAP 
00
C0
60
30
18
0C
06
00
ENDCHAR
STARTCHAR bracketright
ENCODING 93
SWIDTH 1000 0
DWIDTH 8 0
BBX 8 8 0 -1
VVECTOR 4 7
SWIDTH1 0 -1000
DWIDTH1 0 -8
BITMAP 
38
18
18
18
18
18
38
00
ENDCHAR
STARTCHAR asciicircum
ENCODING 94
SWIDTH 1000 0
DWIDTH 8 0
BBX 8 8 0 -1
VVECTOR 4 7
SWIDTH1 0 -1000
DWIDTH1 0 -8
BITMAP 
10
38
6C
00
00
00
00
00
ENDCHAR
STARTCHAR underscore
ENCODING 95
SWIDTH 1000 0
DWIDTH 8 0
BBX 8 8 0 -1
VVECTOR 4 7
SWIDTH1 0 -1000
DWIDTH1 0 -8
BITMAP 
00
00
00
00
00
00
00
FE
ENDCHAR
STARTCHAR grave
ENCODING 96
SWIDTH 1000 0
DWIDTH 8 0
BBX 8 8 0 -1
VVECTOR 4 7
SWIDTH1 0 -1000
DWIDTH1 0 -8
BITMAP 
30
30
20
10
00
00
00
00
ENDCHAR
STARTCHAR a
ENCODING 97
SWIDTH 1000 0
DWIDTH 8 0
BBX 8 8 0 -1
VVECTOR 4 7
SWIDTH1 0 -1000
DWIDTH1 0 -8
BITMAP 
00
3C
06
7E
C6
C6
7E
00
ENDCHAR
STARTCHAR b
ENCODING 98
SWIDTH 1000 0
DWIDTH 8 0
BBX 8 8 0 -1
VVECTOR 4 7
SWIDTH1 0 -1000
DWIDTH1 0 -8
BITMAP 
C0
F8
CC
C6
C6
C6
FC
00
ENDCHAR
STARTCHAR c
ENCODING 99
SWIDTH 1000 0
DWIDTH 8 0
BBX 8 8 0 -1
VVECTOR 4 7
SWIDTH1 0 -1000
DWIDTH1 0 -8
BITMAP 
00
78
CC
C0
C0
C6
7C
00
ENDCHAR
STARTCHAR d
ENCODING 100
SWIDTH 1000 0
DWIDTH 8 0
BBX 8 8 0 -1
VVECTOR 4 7
SWIDTH1 0 -1000
DWIDTH1 0 -8
BITMAP 
06
3E
66
C6
C6
C6
7E
00
ENDCHAR
STARTCHAR e
ENCODING 101
SWIDTH 1000 0
DWIDTH 8 0
BBX 8 8 0 -1
VVECTOR 4 7
SWIDTH1 0 -1000
DWIDTH1 0 -8
BITMAP 
00
78
CC
FC
C0
C6
7C
00
ENDCHAR
STARTCHAR f
ENCODING 102
SWIDTH 1000 0
DWIDTH 8 0
BBX 8 8 0 -1
VVECTOR 4 7
SWIDTH1 0 -1000
DWIDTH1 0 -8
BITMAP 
38
6C
60
78
60
60
60
60
ENDCHAR
STARTCHAR g
ENCODING 103
SWIDTH 1000 0
DWIDTH 8 0
BBX 8 8 0 -1
VVECTOR 4 7
SWIDTH1 0 -1000
DWIDTH1 0 -8
BITMAP 
00
7E
C6
C6
C6
7E
06
7C
ENDCHAR
STARTCHAR h
ENCODING 104
SWIDTH 1000 0
DWIDTH 8 0
BBX 8 8 0 -1
VVECTOR 4 7
SWIDTH1 0 -1000
DWIDTH1 0 -8
BITMAP 
C0
F8
CC
C6
C6
C6
C6
00
ENDCHAR
STARTCHAR i
ENCODING 105
SWIDTH 1000 0
DWIDTH 8 0
BBX 8 8 0 -1
VVECTOR 4 7
SWIDTH1 0 -1000
DWIDTH1 0 -8
BITMAP 
18
00
38
18
18
18
7E
00
ENDCHAR
STARTCHAR j
ENCODING 106
SWIDTH 1000 0
DWIDTH 8 0
BBX 8 8 0 -1
VVECTOR 4 7
SWIDTH1 0 -1000
DWIDTH1 0 -8
BITMAP 
0C
00
1C
0C
0C
0C
4C
38
ENDCHAR
STARTCHAR k
ENCODING 107
SWIDTH 1000 0
DWIDTH 8 0
BBX 8 8 0 -1
VVECTOR 4 7
SWIDTH1 0 -1000
DWIDTH1 0 -8
BITMAP 
C0
CC
D8
F0
D8
CC
C6
00
ENDCHAR
STARTCHAR l
ENCODING 108
SWIDTH 1000 0
DWIDTH 8 0
BBX 8 8 0 -1
VVECTOR 4 7
SWIDTH1 0 -1000
DWIDTH1 0 -8
BITMAP 
38
18
18
18
18
18
7E
00
ENDCHAR
STARTCHAR m
ENCODING 109
SWIDTH 1000 0
DWIDTH 8 0
BBX 8 8 0 -1
VVECTOR 4 7
SWIDTH1 0 -1000
DWIDTH1 0 -8
BITMAP 
00
C4
EE
FE
D6
C6
C6
00
ENDCHAR
STARTCHAR n
ENCODING 110
SWIDTH 1000 0
DWIDTH 8 0
BBX 8 8 0 -1
VVECTOR 4 7
SWIDTH1 0 -1000
DWIDTH1 0 -8
BITMAP 
00
F8
CC
C6
C6
C6
C6
00
ENDCHAR
STARTCHAR o
ENCODING 111
SWIDTH 1000 0
DWIDTH 8 0
BBX 8 8 0 -1
VVECTOR 4 7
SWIDTH1 0 -1000
DWIDTH1 0 -8
BITMAP 
00
78
CC
C6
C6
C6
7C
00
ENDCHAR
STARTCHAR p
ENCODING 112
SWIDTH 1000 0
DWIDTH 8 0
BBX 8 8 0 -1
VVECTOR 4 7
SWIDTH1 0 -1000
DWIDTH1 0 -8
BITMAP 
00
F8
CC
C6
C6
C6
FC
C0
ENDCHAR
STARTCHAR q
ENCODING 113
SWIDTH 1000 0
DWIDTH 8 0
BBX 8 8 0 -1
VVECTOR 4 7
SWIDTH1 0 -1000
DWIDTH1 0 -8
BITMAP 
00
3E
66
C6
C6
C6
7E
06
ENDCHAR
STARTCHAR r
ENCODING 114
SWIDTH 1000 0
DWIDTH 8 0
BBX 8 8 0 -1
VVECTOR 4 7
SWIDTH1 0 -1000
DWIDTH1 0 -8
BITMAP 
00
FC
C6
C0
C0
C0
C0
00
ENDCHAR
STARTCHAR s
ENCODING 115
SWIDTH 1000 0
DWIDTH 8 0
BBX 8 8 0 -1
VVECTOR 4 7
SWIDTH1 0 -1000
DWIDTH1 0 -8
BITMAP 
00
78
C0
7C
06
C6
7C
00
ENDCHAR
STARTCHAR t
ENCODING 116
SWIDTH 1000 0
DWIDTH 8 0
BBX 8 8 0 -1
VVECTOR 4 7
SWIDTH1 0 -1000
DWIDTH1 0 -8
BITMAP 
30
7C
30
30
30
32
1C
00
ENDCHAR
STARTCHAR u
ENCODING 117
SWIDTH 1000 0
DWIDTH 8 0
BBX 8 8 0 -1
VVECTOR 4 7
SWIDTH1 0 -1000
DWIDTH1 0 -8
BITMAP 
00
C6
C6
C6
C6
C6
7E
00
ENDCHAR
STARTCHAR v
ENCODING 118
SWIDTH 1000 0
DWIDTH 8 0
BBX 8 8 0 -1
VVECTOR 4 7
SWIDTH1 0 -1000
DWIDTH1 0 -8
BITMAP 
00
C6
C6
6C
6C
38
38
00
ENDCHAR
STARTCHAR w
ENCODING 119
SWIDTH 1000 0
DWIDTH 8 0
BBX 8 8 0 -1
VVECTOR 4 7
SWIDTH1 0 -1000
DWIDTH1 0 -8
BITMAP 
00
C6
D6
FE
7C
6C
44
00
ENDCHAR
STARTCHAR x
ENCODING 120
SWIDTH 1000 0
DWIDTH 8 0
BBX 8 8 0 -1
VVECTOR 4 7
SWIDTH1 0 -1000
DWIDTH1 0 -8
BITMAP 
00
C6
6C
38
38
6C
C6
00
ENDCHAR
STARTCHAR y
ENCODING 121
SWIDTH 1000 0
DWIDTH 8 0
BBX 8 8 0 -1
VVECTOR 4 7
SWIDTH1 0 -1000
DWIDTH1 0 -8
BITMAP 
00
C6
C6
C6
C6
7E
06
7C
ENDCHAR
STARTCHAR z
ENCODING 122
SWIDTH 1000 0
DWIDTH 8 0
BBX 8 8 0 -1
VVECTOR 4 7
SWIDTH1 0 -1000
DWIDTH1 0 -8
BITMAP 
00
FE
0C
18
30
60
FE
00
ENDCHAR
STARTCHAR braceleft
ENCODING 123
SWIDTH 1000 0
DWIDTH 8 0
BBX 8 8 0 -1
VVECTOR 4 7
SWIDTH1 0 -1000
DWIDTH1 0 -8
BITMAP 
0C
18
18
30
18
18
0C
00
ENDCHAR
STARTCHAR bar
ENCODING 124
SWIDTH 1000 0
DWIDTH 8 0
BBX 8 8 0 -1
VVECTOR 4 7
SWIDTH1 0 -1000
DWIDTH1 0 -8
BITMAP 
18
18
18
18
18
18
18
18
ENDCHAR
STARTCHAR braceright
ENCODING 125
SWIDTH 1000 0
DWIDTH 8 0
BBX 8 8 0 -1
VVECTOR 4 7
SWIDTH1 0 -1000
DWIDTH1 0 -8
BITMAP 
30
18
18
0C
18
18
30
00
ENDCHAR
STARTCHAR asciitilde
ENCODING 126
SWIDTH 1000 0
DWIDTH 8 0
BBX 8 8 0 -1
VVECTOR 4 7
SWIDTH1 0 -1000
DWIDTH1 0 -8
BITMAP 
72
9C
00
00
00
00
00
00
ENDCHAR
STARTCHAR char7F
ENCODING 127
SWIDTH 1000 0
DWIDTH 8 0
BBX 8 8 0 -1
VVECTOR 4 7
SWIDTH1 0 -1000
DWIDTH1 0 -8
BITMAP 
38
70
E0
C1
83
07
0E
1C
ENDCHAR
STARTCHAR char80
ENCODING 128
SWIDTH 1000 0
DWIDTH 8 0
BBX 8 8 0 -1
VVECTOR 4 7
SWIDTH1 0 -1000
DWIDTH1 0 -8
BITMAP 
FE
C6
C6
C6
C6
C6
FE
00
ENDCHAR
STARTCHAR char81
ENCODING 129
SWIDTH 1000 0
DWIDTH 8 0
BBX 8 8 0 -1
VVECTOR 4 7
SWIDTH1 0 -1000
DWIDTH1 0 -8
BITMAP 
FE
C6
C6
C6
C6
C6
FE
00
ENDCHAR
STARTCHAR char82
ENCODING 130
SWIDTH 1000 0
DWIDTH 8 0
BBX 8 8 0 -1
VVECTOR 4 7
SWIDTH1 0 -1000
DWIDTH1 0 -8
BITMAP 
FE
C6
C6
C6
C6
C6
FE
00
ENDCHAR
STARTCHAR char83
ENCODING 131
SWIDTH 1000 0
DWIDTH 8 0
BBX 8 8 0 -1
VVECTOR 4 7
SWIDTH1 0 -1000
DWIDTH1 0 -8
BITMAP 
FE
C6
C6
C6
C6
C6
FE
00
ENDCHAR
STARTCHAR char84
ENCODING 132
SWIDTH 1000 0
DWIDTH 8 0
BBX 8 8 0 -1
VVECTOR 4 7
SWIDTH1 0 -1000
DWIDTH1 0 -8
BITMAP 
FE
C6
C6
C6
C6
C6
FE
00
ENDCHAR
STARTCHAR char85
ENCODING 133
SWIDTH 1000 0
DWIDTH 8 0
BBX 8 8 0 -1
VVECTOR 4 7
SWIDTH1 0 -1000
DWIDTH1 0 -8
BITMAP 
FE
C6
C6
C6
C6
C6
FE
00
ENDCHAR
STARTCHAR char86
ENCODING 134
SWIDTH 1000 0
DWIDTH 8 0
BBX 8 8 0 -1
VVECTOR 4 7
SWIDTH1 0 -1000
DWIDTH1 0 -8
BITMAP 
FE
C6
C6
C6
C6
C6
FE
00
ENDCHAR
STARTCHAR char87
ENCODING 135
SWIDTH 1000 0
DWIDTH 8 0
BBX 8 8 0 -1
VVECTOR 4 7
SWIDTH1 0 -1000
DWIDTH1 0 -8
BITMAP 
FE
C6
C6
C6
C6
C6
FE
00
ENDCHAR
STARTCHAR char88
ENCODING 136
SWIDTH 1000 0
DWIDTH 8 0
BBX 8 8 0 -1
VVECTOR 4 7
SWIDTH1 0 -1000
DWIDTH1 0 -8
BITMAP 
FE
C6
C6
C6
C6
C6
FE
00
ENDCHAR
STARTCHAR char89
ENCODING 137
SWIDTH 1000 0
DWIDTH 8 0
BBX 8 8 0 -1
VVECTOR 4 7
SWIDTH1 0 -1000
DWIDTH1 0 -8
BITMAP 
FE
C6
C6
C6
C6
C6
FE
00
ENDCHAR
STARTCHAR char8A
ENCODING 138
SWIDTH 1000 0
DWIDTH 8 0
BBX 8 8 0 -1
VVECTOR 4 7
SWIDTH1 0 -1000
DWIDTH1 0 -8
BITMAP 
FE
C6
C6
C6
C6
C6
FE
00
ENDCHAR
STARTCHAR char8B
ENCODING 139
SWIDTH 1000 0
DWIDTH 8 0
BBX 8 8 0 -1
VVECTOR 4 7
SWIDTH1 0 -1000
DWIDTH1 0 -8
BITMAP 
FE
C6
C6
C6
C6
C6
FE
00
ENDCHAR
STARTCHAR char8C
ENCODING 140
SWIDTH 1000 0
DWIDTH 8 0
BBX 8 8 0 -1
VVECTOR 4 7
SWIDTH1 0 -1000
DWIDTH1 0 -8
BITMAP 
FE
C6
C6
C6
C6
C6
FE
00
ENDCHAR
STARTCHAR char8D
ENCODING 141
SWIDTH 1000 0
DWIDTH 8 0
BBX 8 8 0 -1
VVECTOR 4 7
SWIDTH1 0 -1000
DWIDTH1 0 -8
BITMAP 
FE
C6
C6
C6
C6
C6
FE
00
ENDCHAR
STARTCHAR char8E
ENCODING 142
SWIDTH 1000 0
DWIDTH 8 0
BBX 8 8 0 -1
VVECTOR 4 7
SWIDTH1 0 -1000
DWIDTH1 0 -8
BITMAP 
FE
C6
C6
C6
C6
C6
FE
00
ENDCHAR
STARTCHAR char8F
ENCODING 143
SWIDTH 1000 0
DWIDTH 8 0
BBX 8 8 0 -1
VVECTOR 4 7
SWIDTH1 0 -1000
DWIDTH1 0 -8
BITMAP 
FE
C6
C6
C6
C6
C6
FE
00
ENDCHAR
STARTCHAR char90
ENCODING 144
SWIDTH 1000 0
DWIDTH 8 0
BBX 8 8 0 -1
VVECTOR 4 7
SWIDTH1 0 -1000
DWIDTH1 0 -8
BITMAP 
FE
C6
C6
C6
C6
C6
FE
00
ENDCHAR
STARTCHAR char91
ENCODING 145
SWIDTH 1000 0
DWIDTH 8 0
BBX 8 8 0 -1
VVECTOR 4 7
SWIDTH1 0 -1000
DWIDTH1 0 -8
BITMAP 
FE
C6
C6
C6
C6
C6
FE
00
ENDCHAR
STARTCHAR char92
ENCODING 146
SWIDTH 1000 0
DWIDTH 8 0
BBX 8 8 0 -1
VVECTOR 4 7
SWIDTH1 0 -1000
DWIDTH1 0 -8
BITMAP 
FE
C6
C6
C6
C6
C6
FE
00
ENDCHAR
STARTCHAR char93
ENCODING 147
SWIDTH 1000 0
DWIDTH 8 0
BBX 8 8 0 -1
VVECTOR 4 7
SWIDTH1 0 -1000
DWIDTH1 0 -8
BITMAP 
FE
C6
C6
C6
C6
C6
FE
00
ENDCHAR
STARTCHAR char94
ENCODING 148
SWIDTH 1000 0
DWIDTH 8 0
BBX 8 8 0 -1
VVECTOR 4 7
SWIDTH1 0 -1000
DWIDTH1 0 -8
BITMAP 
FE
C6
C6
C6
C6
C6
FE
00
ENDCHAR
STARTCHAR char95
ENCODING 149
SWIDTH 1000 0
DWIDTH 8 0
BBX 8 8 0 -1
VVECTOR 4 7
SWIDTH1 0 -1000
DWIDTH1 0 -8
BITMAP 
FE
C6
C6
C6
C6
C6
FE
00
ENDCHAR
STARTCHAR char96
ENCODING 150
SWIDTH 1000 0
DWIDTH 8 0
BBX 8 8 0 -1
VVECTOR 4 7
SWIDTH1 0 -1000
DWIDTH1 0 -8
BITMAP 
FE
C6
C6
C6
C6
C6
FE
00
ENDCHAR
STARTCHAR char97
ENCODING 151
SWIDTH 1000 0
DWIDTH 8 0
BBX 8 8 0 -1
VVECTOR 4 7
SWIDTH1 0 -1000
DWIDTH1 0 -8
BITMAP 
FE
C6
C6
C6
C6
C6
FE
00
ENDCHAR
STARTCHAR char98
ENCODING 152
SWIDTH 1000 0
DWIDTH 8 0
BBX 8 8 0 -1
VVECTOR 4 7
SWIDTH1 0 -1000
DWIDTH1 0 -8
BITMAP 
FE
C6
C6
C6
C6
C6
FE
00
ENDCHAR
STARTCHAR char99
ENCODING 153
SWIDTH 1000 0
DWIDTH 8 0
BBX 8 8 0 -1
VVECTOR 4 7
SWIDTH1 0 -1000
DWIDTH1 0 -8
BITMAP 
FE
C6
C6
C6
C6
C6
FE
00
ENDCHAR
STARTCHAR char9A
ENCODING 154
SWIDTH 1000 0
DWIDTH 8 0
BBX 8 8 0 -1
VVECTOR 4 7
SWIDTH1 0 -1000
DWIDTH1 0 -8
BITMAP 
FE
C6
C6
C6
C6
C6
FE
00
ENDCHAR
STARTCHAR char9B
ENCODING 155
SWIDTH 1000 0
DWIDTH 8 0
BBX 8 8 0 -1
VVECTOR 4 7
SWIDTH1 0 -1000
DWIDTH1 0 -8
BITMAP 
FE
C6
C6
C6
C6
C6
FE
00
ENDCHAR
STARTCHAR char9C
ENCODING 156
SWIDTH 1000 0
DWIDTH 8 0
BBX 8 8 0 -1
VVECTOR 4 7
SWIDTH1 0 -1000
DWIDTH1 0 -8
BITMAP 
FE
C6
C6
C6
C6
C6
FE
00
ENDCHAR
STARTCHAR char9D
ENCODING 157
SWIDTH 1000 0
DWIDTH 8 0
BBX 8 8 0 -1
VVECTOR 4 7
SWIDTH1 0 -1000
DWIDTH1 0 -8
BITMAP 
FE
C6
C6
C6
C6
C6
FE
00
ENDCHAR
STARTCHAR char9E
ENCODING 158
SWIDTH 1000 0
DWIDTH 8 0
BBX 8 8 0 -1
VVECTOR 4 7
SWIDTH1 0 -1000
DWIDTH1 0 -8
BITMAP 
FE
C6
C6
C6
C6
C6
FE
00
ENDCHAR
STARTCHAR char9F
ENCODING 159
SWIDTH 1000 0
DWIDTH 8 0
BBX 8 8 0 -1
VVECTOR 4 7
SWIDTH1 0 -1000
DWIDTH1 0 -8
BITMAP 
FE
C6
C6
C6
C6
C6
FE
00
ENDCHAR
STARTCHAR uni00A0
ENCODING 160
SWIDTH 1000 0
DWIDTH 8 0
BBX 8 8 0 -1
VVECTOR 4 7
SWIDTH1 0 -1000
DWIDTH1 0 -8
BITMAP 
00
00
00
00
00
00
00
00
ENDCHAR
STARTCHAR exclamdown
ENCODING 161
SWIDTH 1000 0
DWIDTH 8 0
BBX 8 8 0 -1
VVECTOR 4 7
SWIDTH1 0 -1000
DWIDTH1 0 -8
BITMAP 
18
00
18
18
18
18
18
00
ENDCHAR
STARTCHAR cent
ENCODING 162
SWIDTH 1000 0
DWIDTH 8 0
BBX 8 8 0 -1
VVECTOR 4 7
SWIDTH1 0 -1000
DWIDTH1 0 -8
BITMAP 
30
78
CC
C0
C0
C6
7C
30
ENDCHAR
STARTCHAR sterling
ENCODING 163
SWIDTH 1000 0
DWIDTH 8 0
BBX 8 8 0 -1
VVECTOR 4 7
SWIDTH1 0 -1000
DWIDTH1 0 -8
BITMAP 
38
6C
60
F8
60
60
FE
00
ENDCHAR
STARTCHAR currency
ENCODING 164
SWIDTH 1000 0
DWIDTH 8 0
BBX 8 8 0 -1
VVECTOR 4 7
SWIDTH1 0 -1000
DWIDTH1 0 -8
BITMAP 
00
C6
7C
C6
C6
7C
C6
00
ENDCHAR
STARTCHAR yen
ENCODING 165
SWIDTH 1000 0
DWIDTH 8 0
BBX 8 8 0 -1
VVECTOR 4 7
SWIDTH1 0 -1000
DWIDTH1 0 -8
BITMAP 
C6
C6
C6
7C
0C
3E
0C
00
ENDCHAR
STARTCHAR brokenbar
ENCODING 166
SWIDTH 1000 0
DWIDTH 8 0
BBX 8 8 0 -1
VVECTOR 4 7
SWIDTH1 0 -1000
DWIDTH1 0 -8
BITMAP 
18
18
18
00
18
18
18
00
ENDCHAR
STARTCHAR section
ENCODING 167
SWIDTH 1000 0
DWIDTH 8 0
BBX 8 8 0 -1
VVECTOR 4 7
SWIDTH1 0 -1000
DWIDTH1 0 -8
BITMAP 
78
C0
7C
C6
C6
7C
06
3C
ENDCHAR
STARTCHAR dieresis
ENCODING 168
SWIDTH 1000 0
DWIDTH 8 0
BBX 8 8 0 -1
VVECTOR 4 7
SWIDTH1 0 -1000
DWIDTH1 0 -8
BITMAP 
6C
00
00
00
00
00
00
00
ENDCHAR
STARTCHAR copyright
ENCODING 169
SWIDTH 1000 0
DWIDTH 8 0
BBX 8 8 0 -1
VVECTOR 4 7
SWIDTH1 0 -1000
DWIDTH1 0 -8
BITMAP 
3C
42
99
A1
A1
99
42
3C
ENDCHAR
STARTCHAR ordfeminine
ENCODING 170
SWIDTH 1000 0
DWIDTH 8 0
BBX 8 8 0 -1
VVECTOR 4 7
SWIDTH1 0 -1000
DWIDTH1 0 -8
BITMAP 
00
7E
C6
C6
7E
00
7C
00
ENDCHAR
STARTCHAR guillemotleft
ENCODING 171
SWIDTH 1000 0
DWIDTH 8 0
BBX 8 8 0 -1
VVECTOR 4 7
SWIDTH1 0 -1000
DWIDTH1 0 -8
BITMAP 
00
36
6C
D8
6C
36
00
00
ENDCHAR
STARTCHAR logicalnot
ENCODING 172
SWIDTH 1000 0
DWIDTH 8 0
BBX 8 8 0 -1
VVECTOR 4 7
SWIDTH1 0 -1000
DWIDTH1 0 -8
BITMAP 
7C
0C
00
00
00
00
00
00
ENDCHAR
STARTCHAR uni00AD
ENCODING 173
SWIDTH 1000 0
DWIDTH 8 0
BBX 8 8 0 -1
VVECTOR 4 7
SWIDTH1 0 -1000
DWIDTH1 0 -8
BITMAP 
00
00
00
7C
00
00
00
00
ENDCHAR
STARTCHAR registered
ENCODING 174
SWIDTH 1000 0
DWIDTH 8 0
BBX 8 8 0 -1
VVECTOR 4 7
SWIDTH1 0 -1000
DWIDTH1 0 -8
BITMAP 
3C
42
B9
A5
B9
A5
42
3C
ENDCHAR
STARTCHAR macron
ENCODING 175
SWIDTH 1000 0
DWIDTH 8 0
BBX 8 8 0 -1
VVECTOR 4 7
SWIDTH1 0 -1000
DWIDTH1 0 -8
BITMAP 
7C
00
00
00
00
00
00
00
ENDCHAR
STARTCHAR degree
ENCODING 176
SWIDTH 1000 0
DWIDTH 8 0
BBX 8 8 0 -1
VVECTOR 4 7
SWIDTH1 0 -1000
DWIDTH1 0 -8
BITMAP 
38
6C
6C
38
00
00
00
00
ENDCHAR
STARTCHAR plusminus
ENCODING 177
SWIDTH 1000 0
DWIDTH 8 0
BBX 8 8 0 -1
VVECTOR 4 7
SWIDTH1 0 -1000
DWIDTH1 0 -8
BITMAP 
00
10
7C
10
00
7C
00
00
ENDCHAR
STARTCHAR uni00B2
ENCODING 178
SWIDTH 1000 0
DWIDTH 8 0
BBX 8 8 0 -1
VVECTOR 4 7
SWIDTH1 0 -1000
DWIDTH1 0 -8
BITMAP 
70
18
30
60
78
00
00
00
ENDCHAR
STARTCHAR uni00B3
ENCODING 179
SWIDTH 1000 0
DWIDTH 8 0
BBX 8 8 0 -1
VVECTOR 4 7
SWIDTH1 0 -1000
DWIDTH1 0 -8
BITMAP 
70
18
30
18
70
00
00
00
ENDCHAR
STARTCHAR acute
ENCODING 180
SWIDTH 1000 0
DWIDTH 8 0
BBX 8 8 0 -1
VVECTOR 4 7
SWIDTH1 0 -1000
DWIDTH1 0 -8
BITMAP 
18
30
60
00
00
00
00
00
ENDCHAR
STARTCHAR mu
ENCODING 181
SWIDTH 1000 0
DWIDTH 8 0
BBX 8 8 0 -1
VVECTOR 4 7
SWIDTH1 0 -1000
DWIDTH1 0 -8
BITMAP 
00
C6
C6
C6
C6
C6
FC
C0
ENDCHAR
STARTCHAR paragraph
ENCODING 182
SWIDTH 1000 0
DWIDTH 8 0
BBX 8 8 0 -1
VVECTOR 4 7
SWIDTH1 0 -1000
DWIDTH1 0 -8
BITMAP 
00
7E
F4
74
14
14
14
00
ENDCHAR
STARTCHAR periodcentered
ENCODING 183
SWIDTH 1000 0
DWIDTH 8 0
BBX 8 8 0 -1
VVECTOR 4 7
SWIDTH1 0 -1000
DWIDTH1 0 -8
BITMAP 
00
00
00
18
18
00
00
00
ENDCHAR
STARTCHAR cedilla
ENCODING 184
SWIDTH 1000 0
DWIDTH 8 0
BBX 8 8 0 -1
VVECTOR 4 7
SWIDTH1 0 -1000
DWIDTH1 0 -8
BITMAP 
00
00
00
00
00
00
18
30
ENDCHAR
STARTCHAR uni00B9
ENCODING 185
SWIDTH 1000 0
DWIDTH 8 0
BBX 8 8 0 -1
VVECTOR 4 7
SWIDTH1 0 -1000
DWIDTH1 0 -8
BITMAP 
30
70
30
30
78
00
00
00
ENDCHAR
STARTCHAR ordmasculine
ENCODING 186
SWIDTH 1000 0
DWIDTH 8 0
BBX 8 8 0 -1
VVECTOR 4 7
SWIDTH1 0 -1000
DWIDTH1 0 -8
BITMAP 
00
7C
C6
C6
7C
00
7C
00
ENDCHAR
STARTCHAR guillemotright
ENCODING 187
SWIDTH 1000 0
DWIDTH 8 0
BBX 8 8 0 -1
VVECTOR 4 7
SWIDTH1 0 -1000
DWIDTH1 0 -8
BITMAP 
00
D8
6C
36
6C
D8
00
00
ENDCHAR
STARTCHAR onequarter
ENCODING 188
SWIDTH 1000 0
DWIDTH 8 0
BBX 8 8 0 -1
VVECTOR 4 7
SWIDTH1 0 -1000
DWIDTH1 0 -8
BITMAP 
60
E6
6C
7A
36
6F
CF
03
ENDCHAR
STARTCHAR onehalf
ENCODING 189
SWIDTH 1000 0
DWIDTH 8 0
BBX 8 8 0 -1
VVECTOR 4 7
SWIDTH1 0 -1000
DWIDTH1 0 -8
BITMAP 
60
E6
6C
78
3E
63
CE
1F
ENDCHAR
STARTCHAR threequarters
ENCODING 190
SWIDTH 1000 0
DWIDTH 8 0
BBX 8 8 0 -1
VVECTOR 4 7
SWIDTH1 0 -1000
DWIDTH1 0 -8
BITMAP 
E0
36
6C
3A
F6
6F
CF
03
ENDCHAR
STARTCHAR questiondown
ENCODING 191
SWIDTH 1000 0
DWIDTH 8 0
BBX 8 8 0 -1
VVECTOR 4 7
SWIDTH1 0 -1000
DWIDTH1 0 -8
BITMAP 
30
00
30
3C
06
C6
7C
00
ENDCHAR
STARTCHAR Agrave
ENCODING 192
SWIDTH 1000 0
DWIDTH 8 0
BBX 8 8 0 -1
VVECTOR 4 7
SWIDTH1 0 -1000
DWIDTH1 0 -8
BITMAP 
30
08
78
CC
FE
C6
C6
00
ENDCHAR
STARTCHAR Aacute
ENCODING 193
SWIDTH 1000 0
DWIDTH 8 0
BBX 8 8 0 -1
VVECTOR 4 7
SWIDTH1 0 -1000
DWIDTH1 0 -8
BITMAP 
18
20
78
CC
FE
C6
C6
00
ENDCHAR
STARTCHAR Acircumflex
ENCODING 194
SWIDTH 1000 0
DWIDTH 8 0
BBX 8 8 0 -1
VVECTOR 4 7
SWIDTH1 0 -1000
DWIDTH1 0 -8
BITMAP 
30
CC
78
CC
FE
C6
C6
00
ENDCHAR
STARTCHAR Atilde
ENCODING 195
SWIDTH 1000 0
DWIDTH 8 0
BBX 8 8 0 -1
VVECTOR 4 7
SWIDTH1 0 -1000
DWIDTH1 0 -8
BITMAP 
72
9C
78
CC
FE
C6
C6
00
ENDCHAR
STARTCHAR Adieresis
ENCODING 196
SWIDTH 1000 0
DWIDTH 8 0
BBX 8 8 0 -1
VVECTOR 4 7
SWIDTH1 0 -1000
DWIDTH1 0 -8
BITMAP 
6C
00
78
CC
FE
C6
C6
00
ENDCHAR
STARTCHAR Aring
ENCODING 197
SWIDTH 1000 0
DWIDTH 8 0
BBX 8 8 0 -1
VVECTOR 4 7
SWIDTH1 0 -1000
DWIDTH1 0 -8
BITMAP 
78
CC
78
CC
FE
C6
C6
00
ENDCHAR
STARTCHAR AE
ENCODING 198
SWIDTH 1000 0
DWIDTH 8 0
BBX 8 8 0 -1
VVECTOR 4 7
SWIDTH1 0 -1000
DWIDTH1 0 -8
BITMAP 
3F
6C
CF
FC
CC
CC
CF
00
ENDCHAR
STARTCHAR Ccedilla
ENCODING 199
SWIDTH 1000 0
DWIDTH 8 0
BBX 8 8 0 -1
VVECTOR 4 7
SWIDTH1 0 -1000
DWIDTH1 0 -8
BITMAP 
78
CC
C0
C0
C0
C6
7C
30
ENDCHAR
STARTCHAR Egrave
ENCODING 200
SWIDTH 1000 0
DWIDTH 8 0
BBX 8 8 0 -1
VVECTOR 4 7
SWIDTH1 0 -1000
DWIDTH1 0 -8
BITMAP 
30
08
FE
C0
FC
C0
FE
00
ENDCHAR
STARTCHAR Eacute
ENCODING 201
SWIDTH 1000 0
DWIDTH 8 0
BBX 8 8 0 -1
VVECTOR 4 7
SWIDTH1 0 -1000
DWIDTH1 0 -8
BITMAP 
18
20
FE
C0
FC
C0
FE
00
ENDCHAR
STARTCHAR Ecircumflex
ENCODING 202
SWIDTH 1000 0
DWIDTH 8 0
BBX 8 8 0 -1
VVECTOR 4 7
SWIDTH1 0 -1000
DWIDTH1 0 -8
BITMAP 
18
66
FE
C0
FC
C0
FE
00
ENDCHAR
STARTCHAR Edieresis
ENCODING 203
SWIDTH 1000 0
DWIDTH 8 0
BBX 8 8 0 -1
VVECTOR 4 7
SWIDTH1 0 -1000
DWIDTH1 0 -8
BITMAP 
6C
00
FE
C0
FC
C0
FE
00
ENDCHAR
STARTCHAR Igrave
ENCODING 204
SWIDTH 1000 0
DWIDTH 8 0
BBX 8 8 0 -1
VVECTOR 4 7
SWIDTH1 0 -1000
DWIDTH1 0 -8
BITMAP 
30
08
7E
18
18
18
7E
00
ENDCHAR
STARTCHAR Iacute
ENCODING 205
SWIDTH 1000 0
DWIDTH 8 0
BBX 8 8 0 -1
VVECTOR 4 7
SWIDTH1 0 -1000
DWIDTH1 0 -8
BITMAP 
18
20
7E
18
18
18
7E
00
ENDCHAR
STARTCHAR Icircumflex
ENCODING 206
SWIDTH 1000 0
DWIDTH 8 0
BBX 8 8 0 -1
VVECTOR 4 7
SWIDTH1 0 -1000
DWIDTH1 0 -8
BITMAP 
18
66
7E
18
18
18
7E
00
ENDCHAR
STARTCHAR Idieresis
ENCODING 207
SWIDTH 1000 0
DWIDTH 8 0
BBX 8 8 0 -1
VVECTOR 4 7
SWIDTH1 0 -1000
DWIDTH1 0 -8
BITMAP 
6C
00
7E
18
18
18
7E
00
ENDCHAR
STARTCHAR Eth
ENCODING 208
SWIDTH 1000 0
DWIDTH 8 0
BBX 8 8 0 -1
VVECTOR 4 7
SWIDTH1 0 -1000
DWIDTH1 0 -8
BITMAP 
F8
CC
C6
E6
C6
C6
FC
00
ENDCHAR
STARTCHAR Ntilde
ENCODING 209
SWIDTH 1000 0
DWIDTH 8 0
BBX 8 8 0 -1
VVECTOR 4 7
SWIDTH1 0 -1000
DWIDTH1 0 -8
BITMAP 
72
9C
E6
F6
DE
CE
C6
00
ENDCHAR
STARTCHAR Ograve
ENCODING 210
SWIDTH 1000 0
DWIDTH 8 0
BBX 8 8 0 -1
VVECTOR 4 7
SWIDTH1 0 -1000
DWIDTH1 0 -8
BITMAP 
30
08
78
CC
C6
C6
7C
00
ENDCHAR
STARTCHAR Oacute
ENCODING 211
SWIDTH 1000 0
DWIDTH 8 0
BBX 8 8 0 -1
VVECTOR 4 7
SWIDTH1 0 -1000
DWIDTH1 0 -8
BITMAP 
18
20
78
CC
C6
C6
7C
00
ENDCHAR
STARTCHAR Ocircumflex
ENCODING 212
SWIDTH 1000 0
DWIDTH 8 0
BBX 8 8 0 -1
VVECTOR 4 7
SWIDTH1 0 -1000
DWIDTH1 0 -8
BITMAP 
30
CC
78
CC
C6
C6
7C
00
ENDCHAR
STARTCHAR Otilde
ENCODING 213
SWIDTH 1000 0
DWIDTH 8 0
BBX 8 8 0 -1
VVECTOR 4 7
SWIDTH1 0 -1000
DWIDTH1 0 -8
BITMAP 
72
9C
78
CC
C6
C6
7C
00
ENDCHAR
STARTCHAR Odieresis
ENCODING 214
SWIDTH 1000 0
DWIDTH 8 0
BBX 8 8 0 -1
VVECTOR 4 7
SWIDTH1 0 -1000
DWIDTH1 0 -8
BITMAP 
6C
00
78
CC
C6
C6
7C
00
ENDCHAR
STARTCHAR multiply
ENCODING 215
SWIDTH 1000 0
DWIDTH 8 0
BBX 8 8 0 -1
VVECTOR 4 7
SWIDTH1 0 -1000
DWIDTH1 0 -8
BITMAP 
00
7C
D6
FF
DB
C7
7E
00
ENDCHAR
STARTCHAR Oslash
ENCODING 216
SWIDTH 1000 0
DWIDTH 8 0
BBX 8 8 0 -1
VVECTOR 4 7
SWIDTH1 0 -1000
DWIDTH1 0 -8
BITMAP 
78
CC
DE
F6
E6
C6
7C
00
ENDCHAR
STARTCHAR Ugrave
ENCODING 217
SWIDTH 1000 0
DWIDTH 8 0
BBX 8 8 0 -1
VVECTOR 4 7
SWIDTH1 0 -1000
DWIDTH1 0 -8
BITMAP 
30
08
C6
C6
C6
C6
7C
00
ENDCHAR
STARTCHAR Uacute
ENCODING 218
SWIDTH 1000 0
DWIDTH 8 0
BBX 8 8 0 -1
VVECTOR 4 7
SWIDTH1 0 -1000
DWIDTH1 0 -8
BITMAP 
18
20
C6
C6
C6
C6
7C
00
ENDCHAR
STARTCHAR Ucircumflex
ENCODING 219
SWIDTH 1000 0
DWIDTH 8 0
BBX 8 8 0 -1
VVECTOR 4 7
SWIDTH1 0 -1000
DWIDTH1 0 -8
BITMAP 
18
66
C6
C6
C6
C6
7C
00
ENDCHAR
STARTCHAR Udieresis
ENCODING 220
SWIDTH 1000 0
DWIDTH 8 0
BBX 8 8 0 -1
VVECTOR 4 7
SWIDTH1 0 -1000
DWIDTH1 0 -8
BITMAP 
6C
00
C6
C6
C6
C6
7C
00
ENDCHAR
STARTCHAR Yacute
ENCODING 221
SWIDTH 1000 0
DWIDTH 8 0
BBX 8 8 0 -1
VVECTOR 4 7
SWIDTH1 0 -1000
DWIDTH1 0 -8
BITMAP 
18
20
C6
C6
7C
0C
0C
00
ENDCHAR
STARTCHAR Thorn
ENCODING 222
SWIDTH 1000 0
DWIDTH 8 0
BBX 8 8 0 -1
VVECTOR 4 7
SWIDTH1 0 -1000
DWIDTH1 0 -8
BITMAP 
C0
F8
CC
C6
FC
C0
C0
C0
ENDCHAR
STARTCHAR germandbls
ENCODING 223
SWIDTH 1000 0
DWIDTH 8 0
BBX 8 8 0 -1
VVECTOR 4 7
SWIDTH1 0 -1000
DWIDTH1 0 -8
BITMAP 
00
78
CC
DC
C6
C6
DC
C0
ENDCHAR
STARTCHAR agrave
ENCODING 224
SWIDTH 1000 0
DWIDTH 8 0
BBX 8 8 0 -1
VVECTOR 4 7
SWIDTH1 0 -1000
DWIDTH1 0 -8
BITMAP 
30
08
3C
06
7E
C6
7E
00
ENDCHAR
STARTCHAR aacute
ENCODING 225
SWIDTH 1000 0
DWIDTH 8 0
BBX 8 8 0 -1
VVECTOR 4 7
SWIDTH1 0 -1000
DWIDTH1 0 -8
BITMAP 
18
20
3C
06
7E
C6
7E
00
ENDCHAR
STARTCHAR acircumflex
ENCODING 226
SWIDTH 1000 0
DWIDTH 8 0
BBX 8 8 0 -1
VVECTOR 4 7
SWIDTH1 0 -1000
DWIDTH1 0 -8
BITMAP 
18
66
3C
06
7E
C6
7E
00
ENDCHAR
STARTCHAR atilde
ENCODING 227
SWIDTH 1000 0
DWIDTH 8 0
BBX 8 8 0 -1
VVECTOR 4 7
SWIDTH1 0 -1000
DWIDTH1 0 -8
BITMAP 
72
9C
3C
06
7E
C6
7E
00
ENDCHAR
STARTCHAR adieresis
ENCODING 228
SWIDTH 1000 0
DWIDTH 8 0
BBX 8 8 0 -1
VVECTOR 4 7
SWIDTH1 0 -1000
DWIDTH1 0 -8
BITMAP 
6C
00
3C
06
7E
C6
7E
00
ENDCHAR
STARTCHAR aring
ENCODING 229
SWIDTH 1000 0
DWIDTH 8 0
BBX 8 8 0 -1
VVECTOR 4 7
SWIDTH1 0 -1000
DWIDTH1 0 -8
BITMAP 
3C
66
3C
06
7E
C6
7E
00
ENDCHAR
STARTCHAR ae
ENCODING 230
SWIDTH 1000 0
DWIDTH 8 0
BBX 8 8 0 -1
VVECTOR 4 7
SWIDTH1 0 -1000
DWIDTH1 0 -8
BITMAP 
00
7E
1B
7F
D8
D8
7F
00
ENDCHAR
STARTCHAR ccedilla
ENCODING 231
SWIDTH 1000 0
DWIDTH 8 0
BBX 8 8 0 -1
VVECTOR 4 7
SWIDTH1 0 -1000
DWIDTH1 0 -8
BITMAP 
00
78
CC
C0
C0
C6
7C
30
ENDCHAR
STARTCHAR egrave
ENCODING 232
SWIDTH 1000 0
DWIDTH 8 0
BBX 8 8 0 -1
VVECTOR 4 7
SWIDTH1 0 -1000
DWIDTH1 0 -8
BITMAP 
30
08
78
FC
C0
C6
7C
00
ENDCHAR
STARTCHAR eacute
ENCODING 233
SWIDTH 1000 0
DWIDTH 8 0
BBX 8 8 0 -1
VVECTOR 4 7
SWIDTH1 0 -1000
DWIDTH1 0 -8
BITMAP 
18
20
78
FC
C0
C6
7C
00
ENDCHAR
STARTCHAR ecircumflex
ENCODING 234
SWIDTH 1000 0
DWIDTH 8 0
BBX 8 8 0 -1
VVECTOR 4 7
SWIDTH1 0 -1000
DWIDTH1 0 -8
BITMAP 
30
CC
78
FC
C0
C6
7C
00
ENDCHAR
STARTCHAR edieresis
ENCODING 235
SWIDTH 1000 0
DWIDTH 8 0
BBX 8 8 0 -1
VVECTOR 4 7
SWIDTH1 0 -1000
DWIDTH1 0 -8
BITMAP 
6C
00
78
FC
C0
C6
7C
00
ENDCHAR
STARTCHAR igrave
ENCODING 236
SWIDTH 1000 0
DWIDTH 8 0
BBX 8 8 0 -1
VVECTOR 4 7
SWIDTH1 0 -1000
DWIDTH1 0 -8
BITMAP 
30
08
38
18
18
18
7E
00
ENDCHAR
STARTCHAR iacute
ENCODING 237
SWIDTH 1000 0
DWIDTH 8 0
BBX 8 8 0 -1
VVECTOR 4 7
SWIDTH1 0 -1000
DWIDTH1 0 -8
BITMAP 
18
20
38
18
18
18
7E
00
ENDCHAR
STARTCHAR icircumflex
ENCODING 238
SWIDTH 1000 0
DWIDTH 8 0
BBX 8 8 0 -1
VVECTOR 4 7
SWIDTH1 0 -1000
DWIDTH1 0 -8
BITMAP 
18
66
38
18
18
18
7E
00
ENDCHAR
STARTCHAR idieresis
ENCODING 239
SWIDTH 1000 0
DWIDTH 8 0
BBX 8 8 0 -1
VVECTOR 4 7
SWIDTH1 0 -1000
DWIDTH1 0 -8
BITMAP 
6C
00
38
18
18
18
7E
00
ENDCHAR
STARTCHAR eth
ENCODING 240
SWIDTH 1000 0
DWIDTH 8 0
BBX 8 8 0 -1
VVECTOR 4 7
SWIDTH1 0 -1000
DWIDTH1 0 -8
BITMAP 
0C
16
3E
66
C6
C6
7E
00
ENDCHAR
STARTCHAR ntilde
ENCODING 241
SWIDTH 1000 0
DWIDTH 8 0
BBX 8 8 0 -1
VVECTOR 4 7
SWIDTH1 0 -1000
DWIDTH1 0 -8
BITMAP 
72
9C
F8
CC
C6
C6
C6
00
ENDCHAR
STARTCHAR ograve
ENCODING 242
SWIDTH 1000 0
DWIDTH 8 0
BBX 8 8 0 -1
VVECTOR 4 7
SWIDTH1 0 -1000
DWIDTH1 0 -8
BITMAP 
30
08
78
CC
C6
C6
7C
00
ENDCHAR
STARTCHAR oacute
ENCODING 243
SWIDTH 1000 0
DWIDTH 8 0
BBX 8 8 0 -1
VVECTOR 4 7
SWIDTH1 0 -1000
DWIDTH1 0 -8
BITMAP 
18
20
78
CC
C6
C6
7C
00
ENDCHAR
STARTCHAR ocircumflex
ENCODING 244
SWIDTH 1000 0
DWIDTH 8 0
BBX 8 8 0 -1
VVECTOR 4 7
SWIDTH1 0 -1000
DWIDTH1 0 -8
BITMAP 
18
66
78
CC
C6
C6
7C
00
ENDCHAR
STARTCHAR otilde
ENCODING 245
SWIDTH 1000 0
DWIDTH 8 0
BBX 8 8 0 -1
VVECTOR 4 7
SWIDTH1 0 -1000
DWIDTH1 0 -8
BITMAP 
72
9C
78
CC
C6
C6
7C
00
ENDCHAR
STARTCHAR odieresis
ENCODING 246
SWIDTH 1000 0
DWIDTH 8 0
BBX 8 8 0 -1
VVECTOR 4 7
SWIDTH1 0 -1000
DWIDTH1 0 -8
BITMAP 
6C
00
78
CC
C6
C6
7C
00
ENDCHAR
STARTCHAR divide
ENCODING 247
SWIDTH 1000 0
DWIDTH 8 0
BBX 8 8 0 -1
VVECTOR 4 7
SWIDTH1 0 -1000
DWIDTH1 0 -8
BITMAP 
00
18
00
7E
00
18
00
00
ENDCHAR
STARTCHAR oslash
ENCODING 248
SWIDTH 1000 0
DWIDTH 8 0
BBX 8 8 0 -1
VVECTOR 4 7
SWIDTH1 0 -1000
DWIDTH1 0 -8
BITMAP 
00
78
CC
DE
F6
E6
7C
00
ENDCHAR
STARTCHAR ugrave
ENCODING 249
SWIDTH 1000 0
DWIDTH 8 0
BBX 8 8 0 -1
VVECTOR 4 7
SWIDTH1 0 -1000
DWIDTH1 0 -8
BITMAP 
30
08
C6
C6
C6
C6
7E
00
ENDCHAR
STARTCHAR uacute
ENCODING 250
SWIDTH 1000 0
DWIDTH 8 0
BBX 8 8 0 -1
VVECTOR 4 7
SWIDTH1 0 -1000
DWIDTH1 0 -8
BITMAP 
18
20
C6
C6
C6
C6
7E
00
ENDCHAR
STARTCHAR ucircumflex
ENCODING 251
SWIDTH 1000 0
DWIDTH 8 0
BBX 8 8 0 -1
VVECTOR 4 7
SWIDTH1 0 -1000
DWIDTH1 0 -8
BITMAP 
18
66
C6
C6
C6
C6
7E
00
ENDCHAR
STARTCHAR udieresis
ENCODING 252
SWIDTH 1000 0
DWIDTH 8 0
BBX 8 8 0 -1
VVECTOR 4 7
SWIDTH1 0 -1000
DWIDTH1 0 -8
BITMAP 
6C
00
C6
C6
C6
C6
7E
00
ENDCHAR
STARTCHAR yacute
ENCODING 253
SWIDTH 1000 0
DWIDTH 8 0
BBX 8 8 0 -1
VVECTOR 4 7
SWIDTH1 0 -1000
DWIDTH1 0 -8
BITMAP 
18
20
C6
C6
C6
7E
06
7C
ENDCHAR
STARTCHAR thorn
ENCODING 254
SWIDTH 1000 0
DWIDTH 8 0
BBX 8 8 0 -1
VVECTOR 4 7
SWIDTH1 0 -1000
DWIDTH1 0 -8
BITMAP 
C0
C0
F8
CC
C6
FC
C0
C0
ENDCHAR
STARTCHAR ydieresis
ENCODING 255
SWIDTH 1000 0
DWIDTH 8 0
BBX 8 8 0 -1
VVECTOR 4 7
SWIDTH1 0 -1000
DWIDTH1 0 -8
BITMAP 
6C
00
C6
C6
C6
7E
06
7C
ENDCHAR
STARTCHAR default
ENCODING -1
SWIDTH 1000 0
DWIDTH 8 0
BBX 8 8 0 -1
VVECTOR 4 7
SWIDTH1 0 -1000
DWIDTH1 0 -8
BITMAP 
FE
C6
C6
C6
C6
C6
FE
00
ENDCHAR
ENDFONT
